<svg xmlns="http://www.w3.org/2000/svg" width="104.827" height="85.455" viewBox="0 0 104.827 85.455"><g transform="translate(-294.5 -306.001)"><g transform="translate(294.5 342.634)" fill="none"><path d="M75.8,33.963H29.029V48.822L0,24.411,29.029,0V14.859H75.8V0l29.029,24.411L75.8,48.822Z" stroke="none"/><path d="M 77.79768371582031 44.52659225463867 L 101.7192687988281 24.41082382202148 L 77.79768371582031 4.294955730438232 L 77.79768371582031 16.85895156860352 L 27.02899169921875 16.85895156860352 L 27.02899169921875 4.294967651367188 L 3.107523441314697 24.41082382202148 L 27.02899169921875 44.52658081054688 L 27.02899169921875 31.96270561218262 L 77.79768371582031 31.96270561218262 L 77.79768371582031 44.52659225463867 M 75.79768371582031 48.82153701782227 L 75.79768371582031 33.96270370483398 L 29.02899169921875 33.96270370483398 L 29.02899169921875 48.82153701782227 L 6.497896720247809e-06 24.41082763671875 L 29.02899169921875 -2.629206619531033e-06 L 29.02899169921875 14.85895156860352 L 75.79768371582031 14.85895156860352 L 75.79768371582031 -2.629206619531033e-06 L 104.826789855957 24.41082763671875 L 75.79768371582031 48.82153701782227 Z" stroke="none" fill="#7ebfff"/></g><path d="M7.7,19.559a2,2,0,0,1-2-2v-3.7H2a2,2,0,0,1-2-2V7.7a2,2,0,0,1,2-2H5.7V2a2,2,0,0,1,2-2h4.149a2,2,0,0,1,2,2v3.7h3.7a2,2,0,0,1,2,2v4.15a2,2,0,0,1-2,2h-3.7v3.7a2,2,0,0,1-2,2Z" transform="translate(375.176 306)" fill="#d5d5d5"/></g></svg>