<svg xmlns="http://www.w3.org/2000/svg" width="32" height="32" viewBox="0 0 32 32"><g transform="translate(-336 -295)"><rect width="32" height="32" rx="6" transform="translate(336 295)" fill="#dfc43e"/><g transform="translate(337.587 305.634)" fill="none"><path d="M20.844,10.311H7.983v4.511L0,7.411,7.983,0V4.511H20.844V0l7.983,7.411-7.983,7.411Z" stroke="none"/><path d="M 22.84394073486328 10.23590278625488 L 25.88715171813965 7.410783290863037 L 22.84394073486328 4.585648059844971 L 22.84394073486328 6.510967254638672 L 5.982810020446777 6.510967254638672 L 5.982810020446777 4.585649967193604 L 2.939617395401001 7.410778045654297 L 5.982810020446777 10.23589134216309 L 5.982810020446777 8.31059741973877 L 22.84394073486328 8.31059741973877 L 22.84394073486328 10.23590278625488 M 20.84394073486328 14.82153701782227 L 20.84394073486328 10.31059741973877 L 7.982810020446777 10.31059741973877 L 7.982810020446777 14.82153701782227 L 1.596069267861822e-07 7.410787105560303 L 7.982810020446777 -2.921600298577687e-06 L 7.982810020446777 4.510967254638672 L 20.84394073486328 4.510967254638672 L 20.84394073486328 -2.921600298577687e-06 L 28.82678031921387 7.410787105560303 L 20.84394073486328 14.82153701782227 Z" stroke="none" fill="#fff"/></g><rect width="3.97" height="13.08" transform="translate(357.7 296.17)" fill="#424242"/><rect width="3.97" height="13.08" transform="translate(366.23 300.73) rotate(90)" fill="#424242"/></g></svg>