<svg xmlns="http://www.w3.org/2000/svg" width="170" height="199" viewBox="0 0 170 199">
  <g id="InstallIcon" transform="translate(-1274 -93)">
    <line id="Line_5" data-name="Line 5" y2="85.306" transform="translate(1359 145.449)" fill="none" stroke="#fff" stroke-linecap="round" stroke-width="11"/>
    <path id="Path_13" data-name="Path 13" d="M-37.362,2322.231l28,28,2.625-2.625,25.373-25.373" transform="translate(1368.364 -2117.94)" fill="none" stroke="#fff" stroke-linecap="round" stroke-linejoin="round" stroke-width="11"/>
    <g id="Polygon_4" data-name="Polygon 4" transform="translate(1444 93) rotate(90)" fill="none">
      <path d="M138.929,0a18,18,0,0,1,15.535,8.908l39.215,67a18,18,0,0,1,0,18.185l-39.215,67A18,18,0,0,1,138.929,170H60.071a18,18,0,0,1-15.535-8.908l-39.215-67a18,18,0,0,1,0-18.185l39.215-67A18,18,0,0,1,60.071,0Z" stroke="none"/>
      <path d="M 60.07121276855469 11 C 57.59538269042969 11 55.28053283691406 12.32736206054688 54.02992248535156 14.46406555175781 L 14.81517028808594 81.46410369873047 C 13.53863525390625 83.6451416015625 13.53863525390625 86.35489654541016 14.81517028808594 88.53592681884766 L 54.02984619140625 155.535888671875 C 55.28045654296875 157.6726379394531 57.59535217285156 159 60.07113647460938 159 L 138.9287109375 159 C 141.4044952392578 159 143.7194213867188 157.6726379394531 144.9700012207031 155.5359649658203 L 184.184814453125 88.53592681884766 C 185.4613494873047 86.35489654541016 185.4613494873047 83.6451416015625 184.1847839355469 81.46407318115234 L 144.9700012207031 14.46403503417969 C 143.7194213867188 12.32736206054688 141.4045257568359 11 138.9287414550781 11 L 60.07121276855469 11 M 60.07121276855469 0 L 138.9287414550781 0 C 145.3213500976562 0 151.2343444824219 3.3905029296875 154.4634552001953 8.907577514648438 L 193.6782379150391 75.90760803222656 C 196.9652709960938 81.52360534667969 196.9652709960938 88.47642517089844 193.6782379150391 94.09243011474609 L 154.4634552001953 161.0924224853516 C 151.2343444824219 166.6094665527344 145.3213500976562 170 138.9287109375 170 L 60.07113647460938 170 C 53.67852783203125 170 47.76553344726562 166.6094665527344 44.53639221191406 161.0923614501953 L 5.321701049804688 94.09239196777344 C 2.034713745117188 88.47639465332031 2.034713745117188 81.52360534667969 5.321746826171875 75.90760803222656 L 44.53645324707031 8.907608032226562 C 47.76556396484375 3.3905029296875 53.67860412597656 0 60.07121276855469 0 Z" stroke="none" fill="#8ccf78"/>
    </g>
  </g>
</svg>
