<svg xmlns="http://www.w3.org/2000/svg" width="32.09" height="32" viewBox="0 0 32.09 32"><rect width="32" height="32" rx="6" fill="#3d7ca6"/><path d="M11.65,11.38V21.71H9.4a5.31,5.31,0,0,1-5.09-5.17,5.29,5.29,0,0,1,5.12-5.16Z" transform="translate(4)" fill="#d8d8d8"/><path d="M11.41,13.28h4.11a1.08,1.08,0,1,1,0,2.16H11.41Z" transform="translate(4)" fill="#d8d8d8"/><path d="M11.41,17.75h4.11a1.08,1.08,0,1,1,0,2.16H11.41Z" transform="translate(4)" fill="#d8d8d8"/><rect width="2.31" height="9.961" transform="translate(9.981 15.44) rotate(90)" fill="#d8d8d8"/><rect width="2.31" height="7.34" transform="translate(32.09 15.44) rotate(90)" fill="#d8d8d8"/><rect width="7.42" height="10.33" rx="2.02" transform="translate(17.33 11.38)" fill="#d8d8d8"/><circle cx="3" cy="3" r="3" transform="translate(24 2)" fill="#79d842"/></svg>